<svg width="28" height="48" viewBox="0 0 28 48" fill="none" xmlns="http://www.w3.org/2000/svg">
<path d="M3.45581 24H23.4558L24.9558 48H1.45581L3.45581 24Z" fill="#F6F7F9"/>
<path d="M11.6326 2.49394C11.6326 2.49394 12.0846 1 13.5325 1C14.9152 1 15.3774 2.51211 15.3774 2.51211" fill="#F6F7F9"/>
<path d="M11.6326 2.49394C11.6326 2.49394 12.0846 1 13.5325 1C14.9152 1 15.3774 2.51211 15.3774 2.51211" stroke="white" stroke-width="0.2" stroke-linejoin="round"/>
<path d="M26.9989 12.7376C26.6466 11.1528 24.2254 2.45357 13.506 2.393C2.78666 2.33244 0.353219 11.3647 0.00500296 12.9758C-0.00182099 13.0057 -0.00166216 13.0368 0.00546735 13.0667C0.0125969 13.0966 0.0265092 13.1245 0.0461454 13.1482C0.0657816 13.172 0.0906241 13.191 0.118782 13.2038C0.14694 13.2166 0.177672 13.2228 0.208638 13.2221H0.958016C1.00836 13.2218 1.05703 13.24 1.09463 13.2731C1.13224 13.3063 1.15611 13.3521 1.16165 13.4018L2.52601 24.8022C2.53154 24.8518 2.55542 24.8976 2.59303 24.9308C2.63063 24.9639 2.6793 24.9821 2.72964 24.9818H24.3496C24.4003 24.9821 24.4492 24.9636 24.4868 24.93C24.5245 24.8964 24.5482 24.8501 24.5532 24.8001L25.8504 13.1777C25.8555 13.1277 25.8791 13.0814 25.9168 13.0478C25.9544 13.0142 26.0034 12.9957 26.054 12.996H26.7973C26.8294 12.9969 26.8613 12.9903 26.8904 12.9767C26.9194 12.9631 26.9448 12.9429 26.9645 12.9177C26.9842 12.8925 26.9975 12.863 27.0035 12.8317C27.0095 12.8004 27.0079 12.7681 26.9989 12.7376ZM8.72059 23.0195C8.72059 23.0731 8.69914 23.1244 8.66095 23.1623C8.62276 23.2001 8.57096 23.2214 8.51696 23.2214H5.17938C5.12537 23.2214 5.07357 23.2001 5.03538 23.1623C4.99719 23.1244 4.97574 23.0731 4.97574 23.0195V13.2382C4.97574 13.1847 4.99719 13.1333 5.03538 13.0955C5.07357 13.0576 5.12537 13.0363 5.17938 13.0363H8.51696C8.57096 13.0363 8.62276 13.0576 8.66095 13.0955C8.69914 13.1333 8.72059 13.1847 8.72059 13.2382V23.0195ZM15.3774 23.0195C15.3774 23.0731 15.356 23.1244 15.3178 23.1623C15.2796 23.2001 15.2278 23.2214 15.1738 23.2214H11.8362C11.7822 23.2214 11.7304 23.2001 11.6922 23.1623C11.654 23.1244 11.6326 23.0731 11.6326 23.0195V13.2382C11.6326 13.1847 11.654 13.1333 11.6922 13.0955C11.7304 13.0576 11.7822 13.0363 11.8362 13.0363H15.1738C15.2278 13.0363 15.2796 13.0576 15.3178 13.0955C15.356 13.1333 15.3774 13.1847 15.3774 13.2382V23.0195ZM22.0343 23.0195C22.0343 23.0731 22.0128 23.1244 21.9746 23.1623C21.9364 23.2001 21.8846 23.2214 21.8306 23.2214H18.493C18.439 23.2214 18.3872 23.2001 18.3491 23.1623C18.3109 23.1244 18.2894 23.0731 18.2894 23.0195V13.2382C18.2894 13.1847 18.3109 13.1333 18.3491 13.0955C18.3872 13.0576 18.439 13.0363 18.493 13.0363H21.8306C21.8846 13.0363 21.9364 13.0576 21.9746 13.0955C22.0128 13.1333 22.0343 13.1847 22.0343 13.2382V23.0195Z" fill="#F6F7F9"/>
</svg>
