<svg width="43" height="48" viewBox="0 0 43 48" fill="none" xmlns="http://www.w3.org/2000/svg">
<path d="M11 24H31L33 48H9L11 24Z" fill="#F6F7F9"/>
<path fill-rule="evenodd" clip-rule="evenodd" d="M5.25238 1C3.58351 2.67404 2.26072 4.6604 1.35952 6.84566C0.458316 9.03092 -0.00364045 11.3723 2.16029e-05 13.7361C0.00368366 16.0999 0.472893 18.4398 1.38086 20.6222C2.28883 22.8047 3.61777 24.787 5.29181 26.4558L11.5442 20.184V10H14.2803L5.25238 1ZM31.5442 20.726V10H28.2802L37.2524 1C38.9264 2.66887 40.2554 4.65112 41.1633 6.83357C42.0713 9.01603 42.5405 11.356 42.5442 13.7197C42.5478 16.0835 42.0859 18.4249 41.1847 20.6102C40.2835 22.7954 38.9607 24.7818 37.2918 26.4558L31.5442 20.726Z" fill="#FFE68F" fill-opacity="0.8"/>
<path d="M19.1768 2.49394C19.1768 2.49394 19.6288 1 21.0767 1C22.4594 1 22.9216 2.51211 22.9216 2.51211" fill="#F6F7F9"/>
<path d="M19.1768 2.49394C19.1768 2.49394 19.6288 1 21.0767 1C22.4594 1 22.9216 2.51211 22.9216 2.51211" stroke="white" stroke-width="0.2" stroke-linejoin="round"/>
<path d="M34.5431 12.7376C34.1908 11.1528 31.7696 2.45357 21.0502 2.393C10.3309 2.33244 7.89741 11.3647 7.54919 12.9758C7.54237 13.0057 7.54253 13.0368 7.54966 13.0667C7.55679 13.0966 7.5707 13.1245 7.59033 13.1482C7.60997 13.172 7.63481 13.191 7.66297 13.2038C7.69113 13.2166 7.72186 13.2228 7.75283 13.2221H8.50221C8.55255 13.2218 8.60122 13.24 8.63882 13.2731C8.67643 13.3063 8.7003 13.3521 8.70584 13.4018L10.0702 24.8022C10.0757 24.8518 10.0996 24.8976 10.1372 24.9308C10.1748 24.9639 10.2235 24.9821 10.2738 24.9818H31.8938C31.9444 24.9821 31.9934 24.9636 32.031 24.93C32.0687 24.8964 32.0924 24.8501 32.0974 24.8001L33.3946 13.1777C33.3996 13.1277 33.4233 13.0814 33.461 13.0478C33.4986 13.0142 33.5476 12.9957 33.5982 12.996H34.3415C34.3736 12.9969 34.4055 12.9903 34.4346 12.9767C34.4636 12.9631 34.489 12.9429 34.5087 12.9177C34.5284 12.8925 34.5417 12.863 34.5477 12.8317C34.5537 12.8004 34.5521 12.7681 34.5431 12.7376ZM16.2648 23.0195C16.2648 23.0731 16.2433 23.1244 16.2051 23.1623C16.1669 23.2001 16.1152 23.2214 16.0611 23.2214H12.7236C12.6696 23.2214 12.6178 23.2001 12.5796 23.1623C12.5414 23.1244 12.5199 23.0731 12.5199 23.0195V13.2382C12.5199 13.1847 12.5414 13.1333 12.5796 13.0955C12.6178 13.0576 12.6696 13.0363 12.7236 13.0363H16.0611C16.1152 13.0363 16.1669 13.0576 16.2051 13.0955C16.2433 13.1333 16.2648 13.1847 16.2648 13.2382V23.0195ZM22.9216 23.0195C22.9216 23.0731 22.9002 23.1244 22.862 23.1623C22.8238 23.2001 22.772 23.2214 22.718 23.2214H19.3804C19.3264 23.2214 19.2746 23.2001 19.2364 23.1623C19.1982 23.1244 19.1768 23.0731 19.1768 23.0195V13.2382C19.1768 13.1847 19.1982 13.1333 19.2364 13.0955C19.2746 13.0576 19.3264 13.0363 19.3804 13.0363H22.718C22.772 13.0363 22.8238 13.0576 22.862 13.0955C22.9002 13.1333 22.9216 13.1847 22.9216 13.2382V23.0195ZM29.5785 23.0195C29.5785 23.0731 29.557 23.1244 29.5188 23.1623C29.4806 23.2001 29.4288 23.2214 29.3748 23.2214H26.0372C25.9832 23.2214 25.9314 23.2001 25.8932 23.1623C25.8551 23.1244 25.8336 23.0731 25.8336 23.0195V13.2382C25.8336 13.1847 25.8551 13.1333 25.8932 13.0955C25.9314 13.0576 25.9832 13.0363 26.0372 13.0363H29.3748C29.4288 13.0363 29.4806 13.0576 29.5188 13.0955C29.557 13.1333 29.5785 13.1847 29.5785 13.2382V23.0195Z" fill="#F6F7F9"/>
</svg>
