<svg width="20" height="20" viewBox="0 0 20 20" fill="none" xmlns="http://www.w3.org/2000/svg">
<path d="M6.24998 9.16675C6.69201 9.16675 7.11593 8.99115 7.42849 8.67859C7.74105 8.36603 7.91665 7.94211 7.91665 7.50008C7.91665 7.05805 7.74105 6.63413 7.42849 6.32157C7.11593 6.00901 6.69201 5.83341 6.24998 5.83341H2.49998V9.16675H6.24998ZM7.08331 10.8334H2.49998V14.1667H7.08331C7.52534 14.1667 7.94926 13.9912 8.26182 13.6786C8.57438 13.366 8.74998 12.9421 8.74998 12.5001C8.74998 12.0581 8.57438 11.6341 8.26182 11.3216C7.94926 11.009 7.52534 10.8334 7.08331 10.8334ZM8.80248 9.64341C9.42709 10.019 9.91139 10.5889 10.1812 11.266C10.4511 11.943 10.4916 12.6898 10.2965 13.3921C10.1015 14.0943 9.68166 14.7133 9.10133 15.1542C8.52099 15.5952 7.81214 15.8337 7.08331 15.8334H0.833313V4.16675H6.24998C6.88454 4.16682 7.5059 4.34802 8.04103 4.68906C8.57616 5.03009 9.00283 5.51679 9.27089 6.09195C9.53896 6.66711 9.63728 7.30684 9.5543 7.93595C9.47133 8.56507 9.2105 9.15743 8.80248 9.64341ZM12.9166 5.00008H17.5V6.25008H12.9166V5.00008ZM19.1666 12.0834H12.9166V12.2917C12.9165 12.8065 13.0896 13.3064 13.4082 13.7108C13.7267 14.1151 14.1722 14.4005 14.6727 14.5208C15.1732 14.6411 15.6997 14.5894 16.1672 14.374C16.6348 14.1586 17.0162 13.792 17.25 13.3334H19.0283C18.7744 14.257 18.1944 15.0572 17.3957 15.5859C16.597 16.1146 15.6337 16.3358 14.6843 16.2087C13.735 16.0815 12.8639 15.6146 12.2324 14.8944C11.601 14.1742 11.2519 13.2496 11.25 12.2917V11.0417C11.25 9.99193 11.667 8.98512 12.4093 8.24278C13.1517 7.50045 14.1585 7.08342 15.2083 7.08342C16.2581 7.08342 17.2649 7.50045 18.0073 8.24278C18.7496 8.98512 19.1666 9.99193 19.1666 11.0417V12.0834ZM17.4133 10.4167C17.2769 9.93716 16.9878 9.51512 16.5899 9.21463C16.192 8.91414 15.7069 8.75157 15.2083 8.75157C14.7097 8.75157 14.2247 8.91414 13.8268 9.21463C13.4288 9.51512 13.1398 9.93716 13.0033 10.4167H17.4133Z" fill="#2F3B51"/>
</svg>
