<svg width="20" height="20" viewBox="0 0 20 20" fill="none" xmlns="http://www.w3.org/2000/svg">
<path d="M11.595 12.1501C11.4614 12.1827 11.3269 12.2116 11.1917 12.2367C10.4578 12.3749 9.70443 12.372 8.97167 12.2284C8.84333 12.2034 8.66167 12.1592 8.4275 12.0967L7.66 13.0942C5.76583 13.0334 5.04583 11.7642 5.04583 11.7642C5.04583 8.94675 6.28 6.66258 6.28 6.66258C7.51417 5.71841 8.68833 5.74425 8.68833 5.74425L9.02417 6.18175C9.05512 6.17741 9.08627 6.17463 9.1175 6.17341C9.75767 6.08856 10.4064 6.09136 11.0458 6.18175L11.4142 5.74425C11.4142 5.74425 12.5892 5.71841 13.8225 6.66341C13.8225 6.66341 15.0575 8.94675 15.0575 11.7642C15.0575 11.7642 14.3283 13.0326 12.4342 13.0942L11.595 12.1492V12.1501ZM8.39667 9.16675C7.89583 9.16675 7.5 9.54175 7.5 10.0001C7.5 10.4584 7.90417 10.8334 8.39667 10.8334C8.89667 10.8334 9.2925 10.4584 9.2925 10.0001C9.30083 9.54175 8.8975 9.16675 8.39667 9.16675ZM11.6033 9.16675C11.1033 9.16675 10.7075 9.54175 10.7075 10.0001C10.7075 10.4584 11.1117 10.8334 11.6033 10.8334C12.1042 10.8334 12.5 10.4584 12.5 10.0001C12.5 9.54175 12.1042 9.16675 11.6033 9.16675ZM17.5 19.1667L13.3417 15.0001H15.8333V3.33341H4.16667V15.0001H13.3358L13.8108 16.6667H4.16667C3.72464 16.6667 3.30072 16.4912 2.98816 16.1786C2.67559 15.866 2.5 15.4421 2.5 15.0001V3.33341C2.5 2.89139 2.67559 2.46746 2.98816 2.1549C3.30072 1.84234 3.72464 1.66675 4.16667 1.66675H15.8333C16.2754 1.66675 16.6993 1.84234 17.0118 2.1549C17.3244 2.46746 17.5 2.89139 17.5 3.33341V19.1667Z" fill="#2F3B51"/>
</svg>
