<svg width="20" height="20" viewBox="0 0 20 20" fill="none" xmlns="http://www.w3.org/2000/svg">
<path d="M10.8334 16.6151C12.5144 16.4012 14.051 15.5552 15.1307 14.2491C16.2104 12.9429 16.7523 11.2747 16.6462 9.58339C16.5401 7.89209 15.7939 6.30465 14.5594 5.14373C13.3249 3.98281 11.6946 3.33552 10 3.33341C8.30332 3.33215 6.66998 3.97786 5.4328 5.13898C4.19563 6.3001 3.44772 7.88924 3.34147 9.58261C3.23523 11.276 3.77863 12.9462 4.86097 14.2528C5.94331 15.5595 7.48314 16.4043 9.16669 16.6151V11.6667H7.50002V10.0001H9.16669V8.62175C9.16669 7.50758 9.28335 7.10341 9.50002 6.69591C9.71345 6.29274 10.0433 5.96316 10.4467 5.75008C10.765 5.57925 11.1609 5.47675 11.8525 5.43258C12.1267 5.41508 12.4817 5.43675 12.9175 5.49925V7.08258H12.5C11.7359 7.08258 11.42 7.11842 11.2317 7.21925C11.1193 7.27705 11.0278 7.36854 10.97 7.48092C10.87 7.66925 10.8334 7.85592 10.8334 8.62092V10.0001H12.9167L12.5 11.6667H10.8334V16.6151ZM10 18.3334C5.39752 18.3334 1.66669 14.6026 1.66669 10.0001C1.66669 5.39758 5.39752 1.66675 10 1.66675C14.6025 1.66675 18.3334 5.39758 18.3334 10.0001C18.3334 14.6026 14.6025 18.3334 10 18.3334Z" fill="#2F3B51"/>
</svg>
