<svg width="20" height="20" viewBox="0 0 20 20" fill="none" xmlns="http://www.w3.org/2000/svg">
<path d="M10 1.66675C12.2642 1.66675 12.5467 1.67508 13.435 1.71675C14.3225 1.75841 14.9267 1.89758 15.4584 2.10425C16.0084 2.31591 16.4717 2.60258 16.935 3.06508C17.3588 3.48166 17.6866 3.98557 17.8959 4.54175C18.1017 5.07258 18.2417 5.67758 18.2834 6.56508C18.3225 7.45341 18.3334 7.73591 18.3334 10.0001C18.3334 12.2642 18.325 12.5467 18.2834 13.4351C18.2417 14.3226 18.1017 14.9267 17.8959 15.4584C17.6873 16.0149 17.3593 16.5189 16.935 16.9351C16.5183 17.3587 16.0144 17.6865 15.4584 17.8959C14.9275 18.1017 14.3225 18.2417 13.435 18.2834C12.5467 18.3226 12.2642 18.3334 10 18.3334C7.73585 18.3334 7.45335 18.3251 6.56502 18.2834C5.67752 18.2417 5.07335 18.1017 4.54169 17.8959C3.98529 17.6871 3.48129 17.3592 3.06502 16.9351C2.64119 16.5186 2.3133 16.0146 2.10419 15.4584C1.89752 14.9276 1.75835 14.3226 1.71669 13.4351C1.67752 12.5467 1.66669 12.2642 1.66669 10.0001C1.66669 7.73591 1.67502 7.45341 1.71669 6.56508C1.75835 5.67675 1.89752 5.07341 2.10419 4.54175C2.31272 3.98523 2.64069 3.48118 3.06502 3.06508C3.48141 2.64111 3.98538 2.31319 4.54169 2.10425C5.07335 1.89758 5.67669 1.75841 6.56502 1.71675C7.45335 1.67758 7.73585 1.66675 10 1.66675ZM10 5.83341C8.89495 5.83341 7.83514 6.2724 7.05374 7.0538C6.27234 7.83521 5.83335 8.89501 5.83335 10.0001C5.83335 11.1052 6.27234 12.165 7.05374 12.9464C7.83514 13.7278 8.89495 14.1667 10 14.1667C11.1051 14.1667 12.1649 13.7278 12.9463 12.9464C13.7277 12.165 14.1667 11.1052 14.1667 10.0001C14.1667 8.89501 13.7277 7.83521 12.9463 7.0538C12.1649 6.2724 11.1051 5.83341 10 5.83341V5.83341ZM15.4167 5.62508C15.4167 5.34881 15.3069 5.08386 15.1116 4.88851C14.9162 4.69316 14.6513 4.58341 14.375 4.58341C14.0988 4.58341 13.8338 4.69316 13.6385 4.88851C13.4431 5.08386 13.3334 5.34881 13.3334 5.62508C13.3334 5.90135 13.4431 6.1663 13.6385 6.36165C13.8338 6.557 14.0988 6.66675 14.375 6.66675C14.6513 6.66675 14.9162 6.557 15.1116 6.36165C15.3069 6.1663 15.4167 5.90135 15.4167 5.62508ZM10 7.50008C10.6631 7.50008 11.2989 7.76347 11.7678 8.23231C12.2366 8.70116 12.5 9.33704 12.5 10.0001C12.5 10.6631 12.2366 11.299 11.7678 11.7678C11.2989 12.2367 10.6631 12.5001 10 12.5001C9.33698 12.5001 8.70109 12.2367 8.23225 11.7678C7.76341 11.299 7.50002 10.6631 7.50002 10.0001C7.50002 9.33704 7.76341 8.70116 8.23225 8.23231C8.70109 7.76347 9.33698 7.50008 10 7.50008V7.50008Z" fill="#2F3B51"/>
</svg>
