<svg width="20" height="20" viewBox="0 0 20 20" fill="none" xmlns="http://www.w3.org/2000/svg">
<path d="M10 18.3334C5.39752 18.3334 1.66669 14.6026 1.66669 10.0001C1.66669 5.39758 5.39752 1.66675 10 1.66675C14.6025 1.66675 18.3334 5.39758 18.3334 10.0001C18.3334 14.6026 14.6025 18.3334 10 18.3334ZM15.5584 10.0001C15.5498 9.76551 15.4735 9.53844 15.3388 9.34622C15.2041 9.15401 15.0166 9.00487 14.7991 8.91679C14.5815 8.8287 14.3431 8.80543 14.1126 8.84978C13.8821 8.89414 13.6694 9.00421 13.5 9.16675C12.552 8.52234 11.4377 8.16633 10.2917 8.14175L10.8334 5.54175L12.6167 5.91675C12.6379 6.11382 12.7286 6.29688 12.8726 6.43307C13.0166 6.56926 13.2045 6.64966 13.4024 6.65985C13.6004 6.67003 13.7955 6.60933 13.9527 6.48864C14.1099 6.36794 14.219 6.19516 14.2603 6.00131C14.3016 5.80746 14.2724 5.60523 14.1781 5.43092C14.0837 5.25661 13.9304 5.12164 13.7455 5.05024C13.5606 4.97883 13.3563 4.97567 13.1692 5.04131C12.9822 5.10696 12.8247 5.23711 12.725 5.40841L10.6834 5.00008C10.65 4.99276 10.6155 4.99213 10.5818 4.99824C10.5482 5.00435 10.5161 5.01708 10.4874 5.03568C10.4587 5.05429 10.434 5.0784 10.4147 5.10662C10.3954 5.13484 10.3819 5.16661 10.375 5.20008L9.75835 8.09175C8.59826 8.10924 7.46858 8.46552 6.50835 9.11675C6.37989 8.99587 6.22668 8.90438 6.05934 8.84861C5.89199 8.79283 5.71453 8.77411 5.53923 8.79374C5.36394 8.81337 5.19501 8.87088 5.04415 8.96228C4.89329 9.05369 4.76411 9.17681 4.66556 9.3231C4.56701 9.46939 4.50145 9.63537 4.47342 9.80952C4.44539 9.98367 4.45556 10.1618 4.50323 10.3317C4.5509 10.5015 4.63493 10.6589 4.74949 10.793C4.86405 10.9272 5.0064 11.0348 5.16669 11.1084C5.1573 11.2305 5.1573 11.353 5.16669 11.4751C5.16669 13.3417 7.34169 14.8584 10.025 14.8584C12.7084 14.8584 14.8834 13.3417 14.8834 11.4751C14.8927 11.353 14.8927 11.2305 14.8834 11.1084C15.089 11.0062 15.2615 10.8479 15.381 10.6518C15.5004 10.4556 15.5619 10.2297 15.5584 10.0001V10.0001ZM7.22502 10.8334C7.22502 10.6124 7.31282 10.4004 7.4691 10.2442C7.62538 10.0879 7.83734 10.0001 8.05835 10.0001C8.27937 10.0001 8.49133 10.0879 8.64761 10.2442C8.80389 10.4004 8.89169 10.6124 8.89169 10.8334C8.89169 11.0544 8.80389 11.2664 8.64761 11.4227C8.49133 11.579 8.27937 11.6667 8.05835 11.6667C7.83734 11.6667 7.62538 11.579 7.4691 11.4227C7.31282 11.2664 7.22502 11.0544 7.22502 10.8334ZM12.0667 13.1251C11.4755 13.5706 10.748 13.7974 10.0084 13.7667C9.26868 13.7974 8.54125 13.5706 7.95002 13.1251C7.91458 13.0819 7.89648 13.0271 7.89922 12.9713C7.90196 12.9155 7.92535 12.8627 7.96485 12.8232C8.00434 12.7837 8.05712 12.7603 8.11291 12.7576C8.1687 12.7549 8.22351 12.773 8.26669 12.8084C8.76771 13.1759 9.37929 13.3612 10 13.3334C10.6215 13.3672 11.2359 13.1879 11.7417 12.8251C11.763 12.8012 11.789 12.782 11.8181 12.7686C11.8471 12.7552 11.8786 12.7479 11.9106 12.7472C11.9426 12.7465 11.9744 12.7524 12.004 12.7645C12.0337 12.7766 12.0605 12.7947 12.0828 12.8176C12.1051 12.8405 12.1225 12.8678 12.1339 12.8977C12.1452 12.9276 12.1503 12.9595 12.1488 12.9915C12.1473 13.0235 12.1392 13.0548 12.1251 13.0835C12.111 13.1122 12.0911 13.1377 12.0667 13.1584V13.1251V13.1251ZM11.9167 11.7001C11.7519 11.7001 11.5908 11.6512 11.4537 11.5596C11.3167 11.4681 11.2099 11.3379 11.1468 11.1857C11.0837 11.0334 11.0672 10.8658 11.0994 10.7042C11.1315 10.5425 11.2109 10.394 11.3274 10.2775C11.444 10.1609 11.5925 10.0816 11.7541 10.0494C11.9158 10.0173 12.0833 10.0338 12.2356 10.0968C12.3879 10.1599 12.518 10.2667 12.6096 10.4038C12.7011 10.5408 12.75 10.7019 12.75 10.8667C12.7545 10.9797 12.7361 11.0923 12.6957 11.1979C12.6553 11.3034 12.5939 11.3996 12.5152 11.4807C12.4364 11.5618 12.3421 11.626 12.2377 11.6694C12.1334 11.7129 12.0214 11.7346 11.9084 11.7334L11.9167 11.7001Z" fill="#2F3B51"/>
</svg>
